<?xml version="1.0" encoding="utf-8"?>
<!-- Generator: Adobe Illustrator 25.3.1, SVG Export Plug-In . SVG Version: 6.00 Build 0)  -->
<svg version="1.1" id="Capa_1" xmlns="http://www.w3.org/2000/svg" xmlns:xlink="http://www.w3.org/1999/xlink" x="0px" y="0px"
	 viewBox="0 0 24 24" style="enable-background:new 0 0 24 24;" xml:space="preserve">
<style type="text/css">
	.st0{fill:#3FEAA3;}
</style>
<path class="st0" d="M12,22.2c-1.4,0-2.7-0.3-4-0.8c-1.2-0.5-2.3-1.3-3.2-2.2c-0.9-0.9-1.6-2-2.2-3.2s-0.8-2.6-0.8-4
	c0-1.4,0.3-2.7,0.8-4s1.3-2.3,2.2-3.2c0.9-0.9,2-1.6,3.2-2.2s2.6-0.8,4-0.8c1.4,0,2.7,0.3,4,0.8s2.3,1.3,3.2,2.2
	c0.9,0.9,1.6,2,2.2,3.2c0.5,1.2,0.8,2.6,0.8,4s-0.3,2.7-0.8,4c-0.5,1.2-1.3,2.3-2.2,3.2c-0.9,0.9-2,1.6-3.2,2.2
	C14.7,21.9,13.4,22.2,12,22.2L12,22.2z M6.4,17.6L12,12V4.1c-2.2,0-4.1,0.8-5.6,2.3C4.8,7.9,4.1,9.8,4.1,12c0,1.1,0.2,2.1,0.6,3
	C5.1,16,5.6,16.9,6.4,17.6L6.4,17.6z"/>
</svg>
