<?xml version="1.0" encoding="utf-8"?>
<!-- Generator: Adobe Illustrator 25.3.1, SVG Export Plug-In . SVG Version: 6.00 Build 0)  -->
<svg version="1.1" id="Capa_1" xmlns="http://www.w3.org/2000/svg" xmlns:xlink="http://www.w3.org/1999/xlink" x="0px" y="0px"
	 viewBox="0 0 24 24" style="enable-background:new 0 0 24 24;" xml:space="preserve">
<style type="text/css">
	.st0{fill:#3FEAA3;}
</style>
<path class="st0" d="M10.9,14.2l5.9-5.8l-1.6-1.6L10.9,11L8.8,8.9l-1.6,1.6L10.9,14.2z M0.8,21.3v-2.1h22.4v2.1
	C23.2,21.3,0.8,21.3,0.8,21.3z M4.1,18.2c-0.6,0-1.2-0.2-1.6-0.7c-0.4-0.4-0.7-1-0.7-1.6V5.1c0-0.6,0.2-1.2,0.7-1.6
	c0.4-0.4,1-0.7,1.6-0.7h15.9c0.6,0,1.2,0.2,1.6,0.7c0.4,0.4,0.7,1,0.7,1.6v10.9c0,0.6-0.2,1.2-0.7,1.6s-1,0.7-1.6,0.7H4.1z
	 M4.1,15.9h15.9V5.1H4.1V15.9z M4.1,15.9V5.1V15.9z"/>
</svg>
