<?xml version="1.0" encoding="utf-8"?>
<!-- Generator: Adobe Illustrator 25.3.1, SVG Export Plug-In . SVG Version: 6.00 Build 0)  -->
<svg version="1.1" id="Capa_1" xmlns="http://www.w3.org/2000/svg" xmlns:xlink="http://www.w3.org/1999/xlink" x="0px" y="0px"
	 viewBox="0 0 24 24" style="enable-background:new 0 0 24 24;" xml:space="preserve">
<style type="text/css">
	.st0{fill:#3FEAA3;}
</style>
<path class="st0" d="M18.2,15.6c-0.9-0.9-1.7-1.9-2.2-3.1c-0.6-1.2-0.8-2.5-0.8-3.9c0-1.4,0.3-2.6,0.8-3.8s1.3-2.2,2.2-3.1l1.6,1.6
	C19,3.9,18.4,4.7,18,5.6c-0.4,0.9-0.6,1.9-0.6,2.9c0,1.1,0.2,2.1,0.6,3c0.4,0.9,1,1.7,1.7,2.4C19.8,14,18.2,15.6,18.2,15.6z
	 M21.4,12.3c-0.5-0.5-0.9-1-1.2-1.7c-0.3-0.6-0.5-1.3-0.4-2.1c0-0.7,0.1-1.4,0.4-2c0.3-0.6,0.7-1.2,1.2-1.7L23,6.5
	c-0.3,0.3-0.5,0.6-0.7,0.9c-0.2,0.4-0.3,0.7-0.3,1.2c0,0.4,0.1,0.8,0.3,1.2c0.2,0.4,0.4,0.7,0.7,0.9C23,10.7,21.4,12.3,21.4,12.3z
	 M9,12.8c-1.2,0-2.2-0.4-3-1.2c-0.8-0.8-1.2-1.8-1.2-3c0-1.2,0.4-2.2,1.2-3c0.8-0.8,1.8-1.2,3-1.2c1.2,0,2.2,0.4,3,1.2
	c0.8,0.8,1.2,1.8,1.2,3c0,1.2-0.4,2.2-1.2,3C11.2,12.4,10.2,12.8,9,12.8z M0.8,21.2v-3c0-0.6,0.2-1.2,0.5-1.7
	C1.6,16,2,15.6,2.5,15.4c0.8-0.4,1.8-0.8,2.9-1.1c1.1-0.3,2.3-0.5,3.6-0.5c1.3,0,2.5,0.2,3.6,0.5c1.1,0.3,2.1,0.7,2.9,1.1
	c0.5,0.2,0.9,0.6,1.2,1.1c0.3,0.5,0.5,1.1,0.5,1.7v3C17.2,21.2,0.8,21.2,0.8,21.2z M3.1,18.9h11.9v-0.7c0-0.2,0-0.3-0.1-0.5
	c-0.1-0.1-0.2-0.3-0.4-0.3c-0.6-0.3-1.4-0.6-2.3-0.9s-2-0.4-3.1-0.4s-2.2,0.1-3.1,0.4c-0.9,0.3-1.7,0.6-2.3,0.9
	c-0.2,0.1-0.3,0.2-0.4,0.3c-0.1,0.1-0.1,0.3-0.1,0.5C3.1,18.2,3.1,18.9,3.1,18.9z M9,10.5c0.5,0,1-0.2,1.4-0.6
	c0.4-0.4,0.6-0.8,0.6-1.4c0-0.5-0.2-1-0.6-1.4C10,6.8,9.5,6.7,9,6.7S8,6.8,7.7,7.2C7.3,7.6,7.1,8.1,7.1,8.6c0,0.5,0.2,1,0.6,1.4
	C8,10.3,8.5,10.5,9,10.5z"/>
</svg>
