<?xml version="1.0" encoding="utf-8"?>
<!-- Generator: Adobe Illustrator 25.3.1, SVG Export Plug-In . SVG Version: 6.00 Build 0)  -->
<svg version="1.1" id="Capa_1" xmlns="http://www.w3.org/2000/svg" xmlns:xlink="http://www.w3.org/1999/xlink" x="0px" y="0px"
	 viewBox="0 0 24 24" style="enable-background:new 0 0 24 24;" xml:space="preserve">
<style type="text/css">
	.st0{fill:#3FEAA3;}
</style>
<path class="st0" d="M15.2,20.1c-2.2,0-4.1-0.8-5.7-2.3S7.1,14.2,7.1,12c0-2.2,0.8-4.1,2.3-5.7c1.6-1.6,3.5-2.4,5.7-2.4
	c2.2,0,4.1,0.8,5.7,2.4c1.6,1.6,2.4,3.5,2.4,5.7c0,2.2-0.8,4.1-2.4,5.7C19.3,19.3,17.4,20.1,15.2,20.1z M15.2,17.8
	c1.6,0,3-0.6,4.1-1.7C20.5,15,21,13.6,21,12s-0.6-3-1.7-4.1c-1.1-1.1-2.5-1.7-4.1-1.7c-1.6,0-3,0.6-4.1,1.7C9.9,9,9.3,10.4,9.3,12
	c0,1.6,0.6,3,1.7,4.1S13.6,17.8,15.2,17.8z M17.3,15.8l1.6-1.6l-2.6-2.6V8h-2.2v4.5L17.3,15.8z M1.8,9.1V6.9h4.4v2.2
	C6.1,9.1,1.8,9.1,1.8,9.1z M0.8,13.1v-2.2h5.4v2.2C6.1,13.1,0.8,13.1,0.8,13.1z M1.8,17.1v-2.2h4.4v2.2H1.8z"/>
</svg>
